Coordinates
version=1
nRows=24
nColumns=24
inDegrees=yes

Units are S.I. units (second, meters, Newtons, ...)
Angles are in degrees.

endheader
time	pelvis_tilt	pelvis_list	pelvis_rotation	pelvis_tx	pelvis_ty	pelvis_tz	hip_flexion_r	hip_adduction_r	hip_rotation_r	knee_angle_r	ankle_angle_r	subtalar_angle_r	mtp_angle_r	hip_flexion_l	hip_adduction_l	hip_rotation_l	knee_angle_l	ankle_angle_l	subtalar_angle_l	mtp_angle_l	lumbar_extension	lumbar_bending	lumbar_rotation
      0.52900000	     -1.60905469	      7.39251470	     -2.12550900	     -0.84997421	      0.98055962	      0.29705368	     25.90240274	     -5.82133691	     -2.05222054	      1.19689786	     -0.30731705	     -4.09120815	      8.28756392	    -18.23581202	     12.79036822	      7.55076640	      2.06166525	      9.12940539	    -10.32505501	     -0.07476241	    -10.43028323	      0.67535819	    -10.17111828
      0.53316667	     -1.64355368	      7.29450135	     -2.14521318	     -0.84432984	      0.97968714	      0.29720354	     25.92651829	     -5.65345707	     -1.77926881	      1.04425773	     -0.45883147	     -4.02597629	      8.29074835	    -18.36337620	     12.69761049	      7.60690034	      1.66438218	      9.33018742	    -10.37462908	     -0.06654154	    -10.38795813	      0.82779270	    -10.15154906
      0.53733333	     -1.71620340	      7.17685186	     -2.15658276	     -0.83864731	      0.97883688	      0.29742138	     25.94609613	     -5.45778149	     -1.33795398	      0.91382320	     -0.86793898	     -4.43541735	      8.30991216	    -18.37653994	     12.58251162	      7.44367696	      1.11808189	      9.70477539	     -9.98266383	     -0.02155775	    -10.28802804	      1.00757819	    -10.09093684
      0.54150000	     -1.75650747	      7.02493516	     -2.18339380	     -0.83295814	      0.97805834	      0.29764999	     25.95660660	     -5.22872636	     -0.92691138	      0.66129120	     -1.21037311	     -4.71879281	      8.33935938	    -18.42985717	     12.43889761	      7.33965729	      0.57870534	     10.01802553	     -9.75733551	      0.03211012	    -10.24633939	      1.22008788	    -10.03158576
      0.54566667	     -1.82055636	      6.87165714	     -2.21839306	     -0.82723349	      0.97729003	      0.29789450	     26.00993309	     -4.99315906	     -0.48216552	      0.31819362	     -1.62746873	     -5.11596697	      8.37660120	    -18.43377742	     12.29989189	      7.20316148	     -0.00345906	     10.30870514	     -9.54117877	      0.10470760	    -10.15106287	      1.44189542	     -9.95698059
      0.54983333	     -1.86431882	      6.69499981	     -2.25772264	     -0.82151421	      0.97658695	      0.29816618	     26.04913262	     -4.73328067	     -0.02443789	     -0.09216182	     -2.08667193	     -5.57117377	      8.42493045	    -18.43937891	     12.13958957	      7.04903318	     -0.62703525	     10.59149026	     -9.32326846	      0.20018026	    -10.09730710	      1.68733544	     -9.88261764
      0.55400000	     -1.93735689	      6.48008361	     -2.30050041	     -0.81571828	      0.97589087	      0.29843855	     26.12683041	     -4.43336164	      0.41425828	     -0.57760782	     -2.51134862	     -5.95841624	      8.45803649	    -18.41579103	     11.94412898	      6.95547882	     -1.24894157	     10.82737586	     -9.24756175	      0.27614123	    -10.01439974	      1.98627691	     -9.79853977
      0.55816667	     -1.99466742	      6.29431961	     -2.35543206	     -0.80995483	      0.97524348	      0.29877052	     26.21756000	     -4.15134448	      0.88956869	     -1.14043385	     -3.10807246	     -6.61857494	      8.50636710	    -18.37139477	     11.78161516	      6.76330619	     -1.93728418	     11.06250704	     -9.00210638	      0.40250775	     -9.92763116	      2.23112023	     -9.70138105
      0.56233333	     -2.05338669	      6.07044341	     -2.41284827	     -0.80414742	      0.97463595	      0.29909926	     26.31349302	     -3.83222262	      1.33786672	     -1.75721951	     -3.65837752	     -7.20351154	      8.55823205	    -18.31366231	     11.58470131	      6.58347089	     -2.65408865	     11.27490368	     -8.83149295	      0.55069859	     -9.85165463	      2.53124153	     -9.59756697
      0.56650000	     -2.10582694	      5.83818774	     -2.48005557	     -0.79831882	      0.97406831	      0.29946007	     26.42141164	     -3.49854287	      1.76967187	     -2.43867450	     -4.22031072	     -7.81690032	      8.60995846	    -18.24796382	     11.38351105	      6.38156462	     -3.40061753	     11.45215849	     -8.68622638	      0.72447075	     -9.78505121	      2.83838377	     -9.48929342
      0.57066667	     -2.17084186	      5.60479478	     -2.54479078	     -0.79247935	      0.97352212	      0.29982105	     26.56051888	     -3.16273963	      2.18159075	     -3.18173355	     -4.77631944	     -8.44453101	      8.65892769	    -18.14336041	     11.18416834	      6.19409651	     -4.20042628	     11.60585457	     -8.56906963	      0.92301596	     -9.70254410	      3.14890027	     -9.37919241
      0.57483333	     -2.23615176	      5.36653202	     -2.61678460	     -0.78661987	      0.97301182	      0.30020136	     26.71664917	     -2.81756091	      2.57130482	     -3.98001763	     -5.31874924	     -9.07305651	      8.70277606	    -18.02329053	     10.98355211	      6.00171926	     -5.02559307	     11.71117995	     -8.48251867	      1.14773724	     -9.61895600	      3.46713300	     -9.26193090
      0.57900000	     -2.24263010	      5.08973243	     -2.70300586	     -0.78072134	      0.97261880	      0.30062619	     26.79997843	     -2.43021577	      2.94695974	     -4.78144875	     -5.86606933	     -9.74651738	      8.79737264	    -17.93522783	     10.74548221	      5.70876132	     -5.91573440	     11.86046311	     -8.26558550	      1.69567478	     -9.61658080	      3.83204221	     -9.14539423
      0.58316667	     -2.35360601	      4.88486225	     -2.77196834	     -0.77485252	      0.97211356	      0.30099228	     27.06619787	     -2.11662220	      3.25481406	     -5.73568745	     -6.30043253	    -10.28257045	      8.81919668	    -17.73010706	     10.58738561	      5.60293523	     -6.80425423	     11.79556774	     -8.37693320	      1.92604984	     -9.47287022	      4.10391526	     -9.02264555
      0.58733333	     -2.35197894	      4.59314214	     -2.87104004	     -0.76891541	      0.97180371	      0.30145903	     27.16221184	     -1.70598435	      3.58864996	     -6.61648990	     -6.78177575	    -10.97277888	      8.88684187	    -17.60974590	     10.33769850	      5.27433487	     -7.77173527	     11.85773412	     -8.16974031	      2.85361817	     -9.48487807	      4.49027961	     -8.89770071
      0.59150000	     -2.45482731	      4.40276353	     -2.93966608	     -0.76303395	      0.97137870	      0.30182114	     27.44705683	     -1.40889030	      3.82665043	     -7.65231011	     -7.08176148	    -11.42392767	      8.88883312	    -17.35731971	     10.20315216	      5.19672269	     -8.76818363	     11.69496230	     -8.38321164	      3.08781918	     -9.35143283	      4.74203271	     -8.77986044
      0.59566667	     -2.51201477	      4.18159259	     -3.01964556	     -0.75710979	      0.97105566	      0.30223806	     27.66173149	     -1.07560838	      4.07912428	     -8.66416512	     -7.39551910	    -11.97341641	      8.87897692	    -17.12627129	     10.03142137	      4.98842670	     -9.81437163	     11.56398202	     -8.42835855	      3.43499484	     -9.26639378	      5.03408298	     -8.64322753
      0.59983333	     -2.53810759	      3.93560598	     -3.11203263	     -0.75116440	      0.97080930	      0.30266814	     27.84885329	     -0.71602409	      4.29910496	     -9.71405224	     -7.51746371	    -12.39487664	      8.86557555	    -16.91693688	      9.84272942	      4.81345052	    -10.88111862	     11.36246514	     -8.55794816	      3.67503539	     -9.25363212	      5.36651665	     -8.54630307
      0.60400000	     -2.52595183	      3.71270011	     -3.16742404	     -0.74523661	      0.97066015	      0.30308894	     27.98888760	     -0.39627191	      4.46583840	    -10.75952336	     -7.65369553	    -12.92720414	      8.46551952	    -16.68742895	      9.65318706	      4.53320178	    -12.05323507	     11.06320858	     -8.50376144	      9.16517148	     -9.25202174	      5.65591835	     -8.44592807
      0.60816667	     -2.56983683	      3.49050237	     -3.25874275	     -0.73926713	      0.97047259	      0.30350699	     28.19617867	     -0.06493073	      4.62680381	    -11.82420697	     -7.71802670	    -13.23799606	      8.44946083	    -16.38763326	      9.48844428	      4.31703666	    -13.24229690	     10.73652463	     -8.67949022	      9.22836653	     -9.18560352	      5.96150796	     -8.30637619
      0.61233333	     -2.55846576	      3.25823710	     -3.34070310	     -0.73327880	      0.97039985	      0.30393529	     28.33334174	      0.27084819	      4.77267683	    -12.89361692	     -7.61742581	    -13.58237287	      8.43342095	    -16.13071633	      9.30814129	      4.10586355	    -14.45738313	     10.36170165	     -8.81020199	      9.30126288	     -9.18386441	      6.28894206	     -8.21148974
      0.61650000	     -2.57111540	      3.04002548	     -3.40722694	     -0.72732021	      0.97032767	      0.30437519	     28.49450747	      0.58989780	      4.89800335	    -13.96412453	     -7.48101045	    -13.90686679	      8.40621270	    -15.79418471	      9.12791858	      3.85148325	    -15.76976159	      9.93952481	     -8.85975016	      9.42893689	     -9.16274914	      6.57367505	     -8.09828613
      0.62066667	     -2.55738569	      2.79966379	     -3.44804335	     -0.72137559	      0.97034827	      0.30485379	     28.59078455	      0.92247184	      5.00179859	    -14.96915675	     -7.36558616	    -14.29801994	      7.45593624	    -15.42171029	      8.89377522	      3.48331237	    -17.19232747	      9.45640749	     -8.75828552	     13.70323477	     -9.17833264	      6.85249478	     -7.98315665
      0.62483333	     -2.54426941	      2.58378742	     -3.50159820	     -0.71540483	      0.97039107	      0.30528684	     28.70213263	      1.22487503	      5.06640781	    -16.01670720	     -7.03356118	    -14.43973708	      7.44366223	    -15.04694409	      8.70056043	      3.19509730	    -18.60231098	      8.86031088	     -8.81856141	     13.76950118	     -9.17696192	      7.12740819	     -7.87951539
